<svg width="153" height="53" viewBox="0 0 153 53" fill="none" xmlns="http://www.w3.org/2000/svg">
<rect width="153" height="53" rx="8" fill="url(#paint0_linear_14_183)"/>
<g filter="url(#filter0_d_14_183)">
<path d="M23.3864 17.1818C23.3864 18.4242 23.1591 19.4924 22.7045 20.3864C22.25 21.2765 21.6269 21.9621 20.8352 22.4432C20.0473 22.9205 19.1515 23.1591 18.1477 23.1591C17.1402 23.1591 16.2405 22.9205 15.4489 22.4432C14.661 21.9621 14.0398 21.2746 13.5852 20.3807C13.1307 19.4867 12.9034 18.4205 12.9034 17.1818C12.9034 15.9394 13.1307 14.8731 13.5852 13.983C14.0398 13.089 14.661 12.4034 15.4489 11.9261C16.2405 11.4451 17.1402 11.2045 18.1477 11.2045C19.1515 11.2045 20.0473 11.4451 20.8352 11.9261C21.6269 12.4034 22.25 13.089 22.7045 13.983C23.1591 14.8731 23.3864 15.9394 23.3864 17.1818ZM21.6477 17.1818C21.6477 16.2348 21.4943 15.4375 21.1875 14.7898C20.8845 14.1383 20.4678 13.6458 19.9375 13.3125C19.411 12.9754 18.8144 12.8068 18.1477 12.8068C17.4773 12.8068 16.8788 12.9754 16.3523 13.3125C15.8258 13.6458 15.4091 14.1383 15.1023 14.7898C14.7992 15.4375 14.6477 16.2348 14.6477 17.1818C14.6477 18.1288 14.7992 18.928 15.1023 19.5795C15.4091 20.2273 15.8258 20.7197 16.3523 21.0568C16.8788 21.3901 17.4773 21.5568 18.1477 21.5568C18.8144 21.5568 19.411 21.3901 19.9375 21.0568C20.4678 20.7197 20.8845 20.2273 21.1875 19.5795C21.4943 18.928 21.6477 18.1288 21.6477 17.1818ZM29.5923 14.2727V15.6364H24.6605V14.2727H29.5923ZM26.0128 23V13.2614C26.0128 12.7159 26.1321 12.2633 26.3707 11.9034C26.6094 11.5398 26.9257 11.2689 27.3196 11.0909C27.7135 10.9091 28.1416 10.8182 28.6037 10.8182C28.9446 10.8182 29.2363 10.8466 29.4787 10.9034C29.7211 10.9564 29.901 11.0057 30.0185 11.0511L29.6207 12.4261C29.5412 12.4034 29.4389 12.3769 29.3139 12.3466C29.1889 12.3125 29.0374 12.2955 28.8594 12.2955C28.4465 12.2955 28.151 12.3977 27.973 12.6023C27.7988 12.8068 27.7116 13.1023 27.7116 13.4886V23H26.0128ZM35.4986 14.2727V15.6364H30.5668V14.2727H35.4986ZM31.919 23V13.2614C31.919 12.7159 32.0383 12.2633 32.277 11.9034C32.5156 11.5398 32.8319 11.2689 33.2258 11.0909C33.6198 10.9091 34.0478 10.8182 34.5099 10.8182C34.8508 10.8182 35.1425 10.8466 35.3849 10.9034C35.6274 10.9564 35.8073 11.0057 35.9247 11.0511L35.527 12.4261C35.4474 12.4034 35.3452 12.3769 35.2202 12.3466C35.0952 12.3125 34.9436 12.2955 34.7656 12.2955C34.3527 12.2955 34.0573 12.3977 33.8793 12.6023C33.705 12.8068 33.6179 13.1023 33.6179 13.4886V23H31.919ZM37.2514 23V14.2727H38.9503V23H37.2514ZM38.1094 12.9261C37.8139 12.9261 37.5601 12.8276 37.348 12.6307C37.1397 12.4299 37.0355 12.1913 37.0355 11.9148C37.0355 11.6345 37.1397 11.3958 37.348 11.1989C37.5601 10.9981 37.8139 10.8977 38.1094 10.8977C38.4048 10.8977 38.6567 10.9981 38.865 11.1989C39.0772 11.3958 39.1832 11.6345 39.1832 11.9148C39.1832 12.1913 39.0772 12.4299 38.865 12.6307C38.6567 12.8276 38.4048 12.9261 38.1094 12.9261ZM44.9119 23.1761C44.0672 23.1761 43.34 22.9848 42.7301 22.6023C42.124 22.2159 41.6581 21.6837 41.3324 21.0057C41.0066 20.3276 40.8437 19.5511 40.8437 18.6761C40.8437 17.7898 41.0104 17.0076 41.3437 16.3295C41.6771 15.6477 42.1468 15.1155 42.7528 14.733C43.3589 14.3504 44.0729 14.1591 44.8949 14.1591C45.5578 14.1591 46.1487 14.2822 46.6676 14.5284C47.1865 14.7708 47.6051 15.1117 47.9233 15.5511C48.2453 15.9905 48.4365 16.5038 48.4971 17.0909H46.8437C46.7528 16.6818 46.5445 16.3295 46.2187 16.0341C45.8968 15.7386 45.465 15.5909 44.9233 15.5909C44.4498 15.5909 44.035 15.7159 43.679 15.9659C43.3267 16.2121 43.0521 16.5644 42.8551 17.0227C42.6581 17.4773 42.5597 18.0151 42.5597 18.6364C42.5597 19.2727 42.6562 19.822 42.8494 20.2841C43.0426 20.7462 43.3153 21.1042 43.6676 21.358C44.0237 21.6117 44.4422 21.7386 44.9233 21.7386C45.2453 21.7386 45.5369 21.6799 45.7983 21.5625C46.0634 21.4413 46.285 21.2689 46.4631 21.0455C46.6449 20.822 46.7718 20.553 46.8437 20.2386H48.4971C48.4365 20.803 48.2528 21.3068 47.946 21.75C47.6392 22.1932 47.2282 22.5417 46.7131 22.7955C46.2017 23.0492 45.6013 23.1761 44.9119 23.1761ZM50.3139 23V14.2727H52.0128V23H50.3139ZM51.1719 12.9261C50.8764 12.9261 50.6226 12.8276 50.4105 12.6307C50.2022 12.4299 50.098 12.1913 50.098 11.9148C50.098 11.6345 50.2022 11.3958 50.4105 11.1989C50.6226 10.9981 50.8764 10.8977 51.1719 10.8977C51.4673 10.8977 51.7192 10.9981 51.9275 11.1989C52.1397 11.3958 52.2457 11.6345 52.2457 11.9148C52.2457 12.1913 52.1397 12.4299 51.9275 12.6307C51.7192 12.8276 51.4673 12.9261 51.1719 12.9261ZM56.8381 23.1932C56.285 23.1932 55.785 23.0909 55.3381 22.8864C54.8911 22.678 54.5369 22.3769 54.2756 21.983C54.018 21.589 53.8892 21.1061 53.8892 20.5341C53.8892 20.0417 53.9839 19.6364 54.1733 19.3182C54.3627 19 54.6184 18.7481 54.9403 18.5625C55.2623 18.3769 55.6221 18.2367 56.0199 18.142C56.4176 18.0473 56.8229 17.9754 57.2358 17.9261C57.7585 17.8655 58.1828 17.8163 58.5085 17.7784C58.8343 17.7367 59.071 17.6705 59.2187 17.5795C59.3665 17.4886 59.4403 17.3409 59.4403 17.1364V17.0966C59.4403 16.6004 59.3002 16.2159 59.0199 15.9432C58.7434 15.6705 58.3305 15.5341 57.7812 15.5341C57.2093 15.5341 56.7585 15.661 56.429 15.9148C56.1032 16.1648 55.8778 16.4432 55.7528 16.75L54.1562 16.3864C54.3456 15.8561 54.6221 15.428 54.9858 15.1023C55.3532 14.7727 55.7756 14.5341 56.2528 14.3864C56.7301 14.2348 57.232 14.1591 57.7585 14.1591C58.107 14.1591 58.4763 14.2008 58.8665 14.2841C59.2604 14.3636 59.6278 14.5114 59.9687 14.7273C60.3134 14.9432 60.5956 15.2519 60.8153 15.6534C61.035 16.0511 61.1449 16.5682 61.1449 17.2045V23H59.4858V21.8068H59.4176C59.3078 22.0265 59.143 22.2424 58.9233 22.4545C58.7036 22.6667 58.4214 22.8428 58.0767 22.983C57.732 23.1231 57.3191 23.1932 56.8381 23.1932ZM57.2074 21.8295C57.6771 21.8295 58.0786 21.7367 58.4119 21.5511C58.749 21.3655 59.0047 21.1231 59.179 20.8239C59.357 20.5208 59.446 20.197 59.446 19.8523V18.7273C59.3854 18.7879 59.268 18.8447 59.0937 18.8977C58.9233 18.947 58.7282 18.9905 58.5085 19.0284C58.2888 19.0625 58.0748 19.0947 57.8665 19.125C57.6581 19.1515 57.4839 19.1742 57.3437 19.1932C57.0142 19.2348 56.7131 19.3049 56.4403 19.4034C56.1714 19.5019 55.9555 19.6439 55.7926 19.8295C55.6335 20.0114 55.554 20.2538 55.554 20.5568C55.554 20.9773 55.7093 21.2955 56.0199 21.5114C56.3305 21.7235 56.7263 21.8295 57.2074 21.8295ZM65.1065 11.3636V23H63.4077V11.3636H65.1065ZM69.0909 11.3636V23H67.392V11.3636H69.0909ZM72.4503 26.2727C72.1965 26.2727 71.9654 26.2519 71.7571 26.2102C71.5488 26.1723 71.3934 26.1307 71.2912 26.0852L71.7003 24.6932C72.0109 24.7765 72.2874 24.8125 72.5298 24.8011C72.7722 24.7898 72.9863 24.6989 73.1719 24.5284C73.3613 24.3579 73.5279 24.0795 73.6719 23.6932L73.8821 23.1136L70.6889 14.2727H72.5071L74.7173 21.0455H74.8082L77.0184 14.2727H78.8423L75.2457 24.1648C75.0791 24.6193 74.8669 25.0038 74.6094 25.3182C74.3518 25.6364 74.045 25.875 73.6889 26.0341C73.3328 26.1932 72.92 26.2727 72.4503 26.2727Z" fill="#E8E8E8"/>
<path d="M15.924 29.6364V42H12.9357V29.6364H15.924ZM17.8 42V32.7273H20.6072V34.4297H20.7098C20.903 33.8662 21.229 33.4215 21.6878 33.0955C22.1466 32.7695 22.6939 32.6065 23.3298 32.6065C23.9737 32.6065 24.5251 32.7715 24.9839 33.1016C25.4427 33.4316 25.7345 33.8743 25.8593 34.4297H25.9559C26.1289 33.8783 26.467 33.4376 26.9701 33.1076C27.4732 32.7736 28.0668 32.6065 28.751 32.6065C29.6283 32.6065 30.3407 32.8883 30.888 33.4517C31.4354 34.0111 31.7091 34.7798 31.7091 35.7578V42H28.757V36.4339C28.757 35.9711 28.6383 35.619 28.4008 35.3775C28.1634 35.132 27.8555 35.0092 27.4772 35.0092C27.0707 35.0092 26.7507 35.142 26.5173 35.4077C26.2879 35.6693 26.1732 36.0214 26.1732 36.4641V42H23.3358V36.4038C23.3358 35.9731 23.2191 35.633 22.9857 35.3835C22.7523 35.134 22.4444 35.0092 22.0621 35.0092C21.8045 35.0092 21.5771 35.0716 21.3799 35.1964C21.1827 35.3171 21.0277 35.4902 20.915 35.7156C20.8064 35.9409 20.752 36.2066 20.752 36.5124V42H17.8ZM33.5383 42V32.7273H36.3454V34.4297H36.4481C36.6412 33.8662 36.9672 33.4215 37.426 33.0955C37.8848 32.7695 38.4322 32.6065 39.0681 32.6065C39.712 32.6065 40.2634 32.7715 40.7222 33.1016C41.181 33.4316 41.4728 33.8743 41.5976 34.4297H41.6941C41.8672 33.8783 42.2053 33.4376 42.7084 33.1076C43.2114 32.7736 43.8051 32.6065 44.4892 32.6065C45.3666 32.6065 46.079 32.8883 46.6263 33.4517C47.1737 34.0111 47.4473 34.7798 47.4473 35.7578V42H44.4953V36.4339C44.4953 35.9711 44.3766 35.619 44.1391 35.3775C43.9017 35.132 43.5938 35.0092 43.2155 35.0092C42.809 35.0092 42.489 35.142 42.2556 35.4077C42.0262 35.6693 41.9115 36.0214 41.9115 36.4641V42H39.0741V36.4038C39.0741 35.9731 38.9574 35.633 38.724 35.3835C38.4906 35.134 38.1827 35.0092 37.8003 35.0092C37.5428 35.0092 37.3154 35.0716 37.1182 35.1964C36.921 35.3171 36.766 35.4902 36.6533 35.7156C36.5446 35.9409 36.4903 36.2066 36.4903 36.5124V42H33.5383ZM53.611 42.1751C52.6411 42.1751 51.804 41.9839 51.0997 41.6016C50.3994 41.2152 49.8601 40.6658 49.4818 39.9535C49.1075 39.2371 48.9204 38.3859 48.9204 37.3999C48.9204 36.442 49.1095 35.6049 49.4878 34.8885C49.8661 34.1681 50.3994 33.6087 51.0876 33.2102C51.7758 32.8078 52.5868 32.6065 53.5205 32.6065C54.1805 32.6065 54.7842 32.7092 55.3316 32.9144C55.8789 33.1197 56.3518 33.4235 56.7503 33.826C57.1487 34.2285 57.4586 34.7255 57.6799 35.3171C57.9013 35.9047 58.012 36.5788 58.012 37.3395V38.076H49.9527V36.3615H55.2652C55.2611 36.0476 55.1867 35.7679 55.0418 35.5224C54.8969 35.2769 54.6977 35.0857 54.4441 34.9489C54.1946 34.808 53.9069 34.7376 53.5809 34.7376C53.2508 34.7376 52.955 34.812 52.6934 34.9609C52.4318 35.1058 52.2246 35.305 52.0716 35.5586C51.9187 35.8081 51.8382 36.0919 51.8302 36.4098V38.1545C51.8302 38.5328 51.9046 38.8648 52.0535 39.1506C52.2024 39.4323 52.4137 39.6516 52.6874 39.8086C52.9611 39.9656 53.2871 40.044 53.6654 40.044C53.927 40.044 54.1644 40.0078 54.3777 39.9354C54.591 39.8629 54.7742 39.7563 54.9271 39.6154C55.08 39.4745 55.1947 39.3015 55.2712 39.0962L57.9818 39.1747C57.8691 39.7824 57.6216 40.3117 57.2392 40.7624C56.8609 41.2092 56.3639 41.5573 55.7481 41.8068C55.1324 42.0523 54.42 42.1751 53.611 42.1751ZM62.4718 36.7116V42H59.5197V32.7273H62.3269V34.4297H62.4295C62.6348 33.8622 62.9849 33.4175 63.4799 33.0955C63.9749 32.7695 64.5646 32.6065 65.2487 32.6065C65.9007 32.6065 66.4662 32.7534 66.9451 33.0472C67.4281 33.337 67.8024 33.7435 68.068 34.2667C68.3376 34.7859 68.4704 35.3936 68.4664 36.0898V42H65.5144V36.6694C65.5184 36.1542 65.3876 35.7518 65.122 35.462C64.8604 35.1722 64.4961 35.0273 64.0293 35.0273C63.7194 35.0273 63.4457 35.0958 63.2083 35.2326C62.9748 35.3654 62.7937 35.5566 62.6649 35.8061C62.5402 36.0556 62.4758 36.3575 62.4718 36.7116ZM78.3896 35.5586L75.679 35.631C75.6509 35.4379 75.5744 35.2668 75.4496 35.1179C75.3249 34.965 75.1619 34.8462 74.9607 34.7617C74.7634 34.6732 74.534 34.6289 74.2724 34.6289C73.9303 34.6289 73.6386 34.6973 73.3971 34.8342C73.1596 34.971 73.0429 35.1561 73.0469 35.3896C73.0429 35.5707 73.1154 35.7276 73.2643 35.8604C73.4172 35.9932 73.6889 36.0999 74.0793 36.1804L75.8662 36.5185C76.7919 36.6955 77.4801 36.9893 77.9308 37.3999C78.3856 37.8104 78.615 38.3537 78.619 39.0298C78.615 39.6657 78.4259 40.2191 78.0516 40.69C77.6813 41.1609 77.1742 41.5271 76.5303 41.7887C75.8863 42.0463 75.1498 42.1751 74.3207 42.1751C72.9966 42.1751 71.9522 41.9034 71.1876 41.3601C70.4269 40.8127 69.9923 40.0803 69.8836 39.1626L72.7994 39.0902C72.8638 39.4283 73.0308 39.6858 73.3005 39.8629C73.5701 40.04 73.9143 40.1285 74.3328 40.1285C74.7111 40.1285 75.019 40.0581 75.2565 39.9173C75.4939 39.7764 75.6147 39.5892 75.6187 39.3558C75.6147 39.1465 75.5221 38.9795 75.341 38.8548C75.1599 38.726 74.8761 38.6254 74.4898 38.5529L72.8719 38.245C71.9422 38.076 71.25 37.7641 70.7952 37.3093C70.3404 36.8505 70.115 36.2669 70.119 35.5586C70.115 34.9388 70.28 34.4096 70.6141 33.9709C70.9481 33.5282 71.423 33.1901 72.0388 32.9567C72.6545 32.7232 73.381 32.6065 74.2181 32.6065C75.4738 32.6065 76.4638 32.8701 77.1883 33.3974C77.9127 33.9206 78.3132 34.641 78.3896 35.5586ZM84.4069 42.1751C83.437 42.1751 82.5999 41.9839 81.8956 41.6016C81.1953 41.2152 80.656 40.6658 80.2777 39.9535C79.9034 39.2371 79.7162 38.3859 79.7162 37.3999C79.7162 36.442 79.9054 35.6049 80.2837 34.8885C80.662 34.1681 81.1953 33.6087 81.8835 33.2102C82.5717 32.8078 83.3827 32.6065 84.3164 32.6065C84.9764 32.6065 85.5801 32.7092 86.1275 32.9144C86.6748 33.1197 87.1477 33.4235 87.5461 33.826C87.9446 34.2285 88.2545 34.7255 88.4758 35.3171C88.6972 35.9047 88.8079 36.5788 88.8079 37.3395V38.076H80.7486V36.3615H86.0611C86.057 36.0476 85.9826 35.7679 85.8377 35.5224C85.6928 35.2769 85.4936 35.0857 85.24 34.9489C84.9905 34.808 84.7027 34.7376 84.3768 34.7376C84.0467 34.7376 83.7509 34.812 83.4893 34.9609C83.2277 35.1058 83.0205 35.305 82.8675 35.5586C82.7146 35.8081 82.6341 36.0919 82.626 36.4098V38.1545C82.626 38.5328 82.7005 38.8648 82.8494 39.1506C82.9983 39.4323 83.2096 39.6516 83.4833 39.8086C83.757 39.9656 84.083 40.044 84.4613 40.044C84.7229 40.044 84.9603 40.0078 85.1736 39.9354C85.3869 39.8629 85.5701 39.7563 85.723 39.6154C85.8759 39.4745 85.9906 39.3015 86.0671 39.0962L88.7777 39.1747C88.665 39.7824 88.4175 40.3117 88.0351 40.7624C87.6568 41.2092 87.1598 41.5573 86.544 41.8068C85.9282 42.0523 85.2159 42.1751 84.4069 42.1751ZM93.2676 29.6364V42H90.3156V29.6364H93.2676ZM96.9517 45.4773C96.5975 45.4773 96.2635 45.4491 95.9495 45.3928C95.6356 45.3404 95.366 45.27 95.1406 45.1815L95.7926 43.0383C96.0824 43.1349 96.344 43.1913 96.5774 43.2074C96.8148 43.2235 97.0181 43.1852 97.1871 43.0927C97.3602 43.0041 97.493 42.8452 97.5856 42.6158L97.7003 42.3381L94.4041 32.7273H97.495L99.2035 39.3437H99.3L101.033 32.7273H104.142L100.646 42.8874C100.477 43.3945 100.238 43.8413 99.9279 44.2276C99.622 44.618 99.2256 44.9239 98.7386 45.1452C98.2557 45.3666 97.66 45.4773 96.9517 45.4773ZM117.04 33.6751C116.971 33.4215 116.871 33.1982 116.738 33.005C116.605 32.8078 116.442 32.6407 116.249 32.5039C116.056 32.3671 115.834 32.2644 115.585 32.196C115.335 32.1236 115.061 32.0874 114.764 32.0874C114.164 32.0874 113.645 32.2322 113.206 32.522C112.771 32.8118 112.435 33.2344 112.198 33.7898C111.96 34.3411 111.842 35.0112 111.842 35.8001C111.842 36.5929 111.956 37.2691 112.186 37.8285C112.415 38.3879 112.747 38.8145 113.182 39.1083C113.617 39.4021 114.144 39.549 114.764 39.549C115.311 39.549 115.774 39.4605 116.152 39.2834C116.534 39.1023 116.824 38.8467 117.021 38.5167C117.219 38.1867 117.317 37.7983 117.317 37.3516L117.873 37.418H114.866V35.2386H120.197V36.8746C120.197 37.9814 119.961 38.9292 119.491 39.718C119.024 40.5069 118.38 41.1126 117.559 41.5352C116.742 41.9577 115.802 42.169 114.739 42.169C113.56 42.169 112.524 41.9135 111.63 41.4023C110.737 40.8912 110.041 40.1628 109.542 39.217C109.043 38.2672 108.793 37.1403 108.793 35.8363C108.793 34.8221 108.944 33.9226 109.246 33.1378C109.548 32.349 109.968 31.6809 110.508 31.1335C111.051 30.5862 111.679 30.1716 112.391 29.8899C113.108 29.6082 113.878 29.4673 114.703 29.4673C115.42 29.4673 116.086 29.57 116.701 29.7752C117.321 29.9805 117.869 30.2702 118.344 30.6445C118.822 31.0188 119.211 31.4635 119.509 31.9787C119.806 32.4938 119.992 33.0593 120.064 33.6751H117.04ZM124.572 42.157C123.981 42.157 123.455 42.0584 122.997 41.8611C122.542 41.6599 122.182 41.3581 121.916 40.9556C121.654 40.5491 121.523 40.04 121.523 39.4283C121.523 38.9131 121.614 38.4785 121.795 38.1243C121.976 37.7701 122.226 37.4824 122.544 37.261C122.862 37.0397 123.228 36.8726 123.642 36.7599C124.057 36.6432 124.5 36.5647 124.971 36.5245C125.498 36.4762 125.922 36.4259 126.244 36.3736C126.566 36.3172 126.8 36.2388 126.945 36.1381C127.094 36.0335 127.168 35.8866 127.168 35.6974V35.6673C127.168 35.3574 127.061 35.1179 126.848 34.9489C126.635 34.7798 126.347 34.6953 125.985 34.6953C125.594 34.6953 125.28 34.7798 125.043 34.9489C124.806 35.1179 124.655 35.3513 124.59 35.6491L121.868 35.5526C121.948 34.9891 122.155 34.486 122.489 34.0433C122.827 33.5966 123.29 33.2464 123.878 32.9929C124.47 32.7353 125.18 32.6065 126.009 32.6065C126.601 32.6065 127.146 32.677 127.645 32.8178C128.144 32.9547 128.579 33.1559 128.949 33.4215C129.319 33.6831 129.605 34.0051 129.806 34.3874C130.011 34.7698 130.114 35.2064 130.114 35.6974V42H127.337V40.7081H127.265C127.1 41.022 126.888 41.2876 126.631 41.505C126.377 41.7223 126.077 41.8853 125.731 41.994C125.389 42.1026 125.003 42.157 124.572 42.157ZM125.484 40.2251C125.802 40.2251 126.087 40.1607 126.341 40.032C126.599 39.9032 126.804 39.7261 126.957 39.5007C127.11 39.2713 127.186 39.0057 127.186 38.7038V37.8224C127.102 37.8667 126.999 37.907 126.878 37.9432C126.762 37.9794 126.633 38.0136 126.492 38.0458C126.351 38.078 126.206 38.1062 126.057 38.1303C125.908 38.1545 125.765 38.1766 125.629 38.1967C125.351 38.241 125.113 38.3094 124.916 38.402C124.723 38.4946 124.574 38.6153 124.47 38.7642C124.369 38.9091 124.319 39.0821 124.319 39.2834C124.319 39.5892 124.427 39.8227 124.645 39.9837C124.866 40.1446 125.146 40.2251 125.484 40.2251ZM133.392 45.4773C133.038 45.4773 132.704 45.4491 132.39 45.3928C132.076 45.3404 131.806 45.27 131.581 45.1815L132.233 43.0383C132.523 43.1349 132.784 43.1913 133.018 43.2074C133.255 43.2235 133.459 43.1852 133.628 43.0927C133.801 43.0041 133.933 42.8452 134.026 42.6158L134.141 42.3381L130.845 32.7273H133.935L135.644 39.3437H135.74L137.473 32.7273L140.582 32.7273L137.087 42.8874C136.918 43.3945 136.678 43.8413 136.368 44.2276C136.062 44.618 135.666 44.9239 135.179 45.1452C134.696 45.3666 134.1 45.4773 133.392 45.4773Z" fill="white"/>
</g>
<rect x="1.05" y="1.05" width="150.9" height="50.9" rx="6.95" stroke="white" stroke-opacity="0.15" stroke-width="2.1"/>
<defs>
<filter id="filter0_d_14_183" x="6.4" y="2.4" width="140.2" height="48.6773" filterUnits="userSpaceOnUse" color-interpolation-filters="sRGB">
<feFlood flood-opacity="0" result="BackgroundImageFix"/>
<feColorMatrix in="SourceAlpha" type="matrix" values="0 0 0 0 0 0 0 0 0 0 0 0 0 0 0 0 0 0 127 0" result="hardAlpha"/>
<feOffset/>
<feGaussianBlur stdDeviation="2.8"/>
<feComposite in2="hardAlpha" operator="out"/>
<feColorMatrix type="matrix" values="0 0 0 0 0 0 0 0 0 0 0 0 0 0 0 0 0 0 0.25 0"/>
<feBlend mode="normal" in2="BackgroundImageFix" result="effect1_dropShadow_14_183"/>
<feBlend mode="normal" in="SourceGraphic" in2="effect1_dropShadow_14_183" result="shape"/>
</filter>
<linearGradient id="paint0_linear_14_183" x1="76.5" y1="0" x2="76.5" y2="53" gradientUnits="userSpaceOnUse">
<stop stop-color="#80201C"/>
<stop offset="0.489583" stop-color="#602188"/>
<stop offset="1" stop-color="#2F2188"/>
</linearGradient>
</defs>
</svg>
