<svg xmlns="http://www.w3.org/2000/svg" xml:space="preserve" fill-rule="evenodd" stroke-linejoin="round" stroke-miterlimit="1.5" clip-rule="evenodd" viewBox="0 0 68 68"><path fill="none" d="M.05 0h66v66h-66z"/><clipPath id="a"><path d="M.05 0h66v66h-66z"/></clipPath><g clip-path="url(#a)"><clipPath id="b"><circle cx="33.05" cy="33" r="33"/></clipPath><g clip-path="url(#b)"><clipPath id="c"><path d="M83.05-17h-100V83h100V-17ZM29.051 32.295l.077 1.757 8.829 32.963 7.844-2.102-8.597-32.094L43.009-.113l-7.997-1.41-5.961 33.818Z"/></clipPath><g clip-path="url(#c)"><path fill="#30b27c" d="M33.05 0c18.206 0 32.988 14.787 32.988 33S51.256 66 33.05 66C14.843 66 .061 51.213.061 33S14.843 0 33.05 0Zm0 9c13.24 0 23.988 10.755 23.988 24S46.29 57 33.05 57C19.809 57 9.061 46.245 9.061 33S19.809 9 33.05 9Z"/></g><clipPath id="d"><path d="M-16.95-17v46h50l1.368.241L82.05 46.578l-2.737 7.517L32.344 37H-16.95v46h100V-17h-100Z"/></clipPath><g clip-path="url(#d)"><path fill="#30b27c" d="M33.05-17c27.595 0 50 22.404 50 50s-22.405 50-50 50c-27.596 0-50-22.404-50-50s22.404-50 50-50Zm0 9c22.628 0 41 18.371 41 41s-18.372 41-41 41c-22.629 0-41-18.371-41-41s18.371-41 41-41Z"/></g><clipPath id="e"><path d="M33.05-17c27.595 0 50 22.404 50 50s-22.405 50-50 50c-27.596 0-50-22.404-50-50s22.404-50 50-50Zm0 39.549c5.767 0 10.45 4.683 10.45 10.451 0 5.768-4.683 10.451-10.45 10.451-5.768 0-10.451-4.683-10.451-10.451 0-5.768 4.683-10.451 10.451-10.451Z"/></clipPath><g clip-path="url(#e)"><path fill="none" stroke="#30b27c" stroke-width="9" d="m33.05 33-44.829 25.882"/></g><clipPath id="f"><path d="M33.05-17c27.595 0 50 22.404 50 50s-22.405 50-50 50c-27.596 0-50-22.404-50-50s22.404-50 50-50Zm0 25.36c13.599 0 24.64 11.041 24.64 24.64S46.649 57.64 33.05 57.64C19.45 57.64 8.409 46.599 8.409 33S19.45 8.36 33.05 8.36Z"/></clipPath><g clip-path="url(#f)"><path fill="none" stroke="#30b27c" stroke-width="9" d="m33.05 33 50-13.397"/></g><path fill="#30b27c" d="M20.293 35.746 18.05 28l8-9 11-3 4 4-6 6-4 1-3 4 1.12 4.24 3.112 3.09 4.964-.598 2.866-2.964 8.196-2.196 1.464 5.464-8.098 8.026L29.88 48.49l-5.587-5.815-4-6.929Z"/></g></g></svg>